<?xml version="1.0" encoding="utf-8"?>
<!-- Generator: Adobe Illustrator 16.0.3, SVG Export Plug-In . SVG Version: 6.00 Build 0)  -->
<!DOCTYPE svg PUBLIC "-//W3C//DTD SVG 1.1//EN" "http://www.w3.org/Graphics/SVG/1.1/DTD/svg11.dtd">
<svg version="1.1" id="Warstwa_1" xmlns="http://www.w3.org/2000/svg" xmlns:xlink="http://www.w3.org/1999/xlink" x="0px" y="0px"
	 width="32px" height="32px" viewBox="0 0 32 32" enable-background="new 0 0 32 32" xml:space="preserve">
<circle fill="#FFFFFF" cx="16" cy="16" r="16"/>
<g>
	<g>
		<path fill="#003B49" d="M7.354,19.588v3.737H4.75V10.49h4.719c3.02,0,4.568,1.473,4.568,4.453c0,2.982-1.548,4.645-4.568,4.645
			H7.354z M9.45,17.36c1.303,0,1.944-0.791,1.944-2.417c0-1.603-0.641-2.225-1.944-2.225H7.354v4.642H9.45z"/>
	</g>
	<g>
		<path fill="#0069A6" d="M14.892,10.667h4.38l2.236,9.243l2.235-9.243h4.381v12.674h-2.571v-9.803h-0.28l-2.479,9.244h-2.57
			l-2.479-9.244h-0.28v9.803h-2.573V10.667z"/>
	</g>
</g>
</svg>
